<svg viewBox="0 0 184.1 161" xmlns="http://www.w3.org/2000/svg"><style>.st0{fill:#faf3e5}</style><path class="st0" d="M124.794 83.921c-2.113 0-5.455 2.387-7.296-1.022s-5.727-4.705-5.727-4.705L92.815 90.808c1.569-12.887-4.432-13.16-4.432-13.16l-13.773 9.75 6 4.706s.75 23.66.273 35.524c-.545 11.864 8.864 10.773 6.75 11.864-2.045 1.023-5.454 1.841-5.727 11.592s10.364 10.023 10.364 10.023c11.455-.546 16.092-8.182 16.092-8.182 10.16-2.864 2.863 4.5 2.863 4.5-6.204.273-4.159 2.659-4.159 2.659 9.887 3.41 13.774-4.978 13.774-4.978.272-6.545-3.614-11.864-9.887-12.068-6.205-.273-11.183 3.409-11.183 3.409-13.5 8.66-12.205 2.114-12.205 2.114s-2.318-7.364 14.796-7.91S119 129.878 119 129.878l.545-38.115c3.955-2.046 7.296-7.842 5.25-7.842m-18.478 47.593s-.545 4.978-6.477 5.25c-6 .273-7.296-5.522-7.296-5.522l.272-32.865 9.07-6.819 4.431 2.66v37.296zm-42.07-27.137c-2.932-7.841-6.546-11.114-13.637-11.728 11.864-6.546 16.296-16.91 16.296-29.115 0-8.728-3.477-9.887-10.432-14.66-6.546 8.387-11.933 11.524-20.66 17.115-5.387 3.409-4.16 8.455-4.16 15.478v22.364c0 6.205-.613 10.228-3.681 13.16 11.386-2.045 15.341-5.455 15.341-14.796v-7.091c.41 0 .682-.137 1.023-.137 5.66 0 8.114 8.183 10.023 25.774l-4.432 4.569c-4.227-4.023-8.796-5.523-14.523-5.523-10.774 0-19.706 6.545-27.342 20.114 6.204-2.932 12.273-4.16 18.682-4.16 5.455 0 10.296 1.637 14.865 4.706 2.659-4.841 7.159-10.91 13.296-17.456 2.454 9.819 6.614 14.933 13.841 16.433 1.5-3.41 4.432-8.864 8.932-16.16-1.363.41-2.386.614-3.068.614-6.205-.137-6.477-9.342-10.364-19.501M43.79 91.627V75.33c0-6.955.819-9.478 7.092-14.796 3.273 5.386 5.523 9.137 5.523 15 .068 8.32-4.5 14.388-12.615 16.092M12.834 85.49v4.773h-.818c-6.41 0-10.227 4.09-10.227 11.114 0 2.932.818 5.386 2.454 7.977.614-4.363 2.864-6.068 7.228-6.068h1.295v7.023c0 4.841-1.704 9.273-4.84 13.16 11.863-4.841 16.84-11.115 16.84-22.024V80.239c0-5.386.069-8.591 3.137-10.705-10.432 3.341-15.069 7.91-15.069 15.956m163.235 31.706V90.058c2.864-2.114 4.296-4.978 4.637-9.478-1.432.887-2.523 1.364-3.75 1.364-2.796 0-5.66-2.25-7.364-6.341l-18.82 16.773v-1.09c0-7.365-1.84-11.592-6.613-15.342-3.341 4.227-6.887 7.5-10.91 10.091v1.637c5.319.613 6.75 3.272 6.75 9.477v27.274c-2.795 1.773-4.568 4.091-6 7.637 4.841 0 8.932 2.386 12.887 7.773 3.341-5.25 6.614-8.796 10.432-10.637-1.568-2.386-3.545-4.023-6.545-5.25V94.967l9.682-8.591c1.432 3 2.796 4.841 4.773 5.591v29.183c0 10.092 1.977 15.274 9.205 17.66 2.523-4.636 5.318-7.773 8.591-10.296v-1.5c-5.59-.34-6.955-3.068-6.955-9.818M38.881 52.216c-2.045 1.5-4.364 2.931-7.637 2.931-5.045 0-9.41-4.432-14.932-4.432-6.41 0-12.955 6.069-16.364 16.91 2.659-2.932 5.182-4.568 7.636-4.568 4.432 0 9 3.886 13.433 3.886 5.114-.068 12.546-5.25 17.864-14.728M183.433 15.26c-.545 1.296-1.022 2.182-1.568 2.796s-1.09 1.022-1.705 1.227-1.704.34-3.272.34h-1.5c-1.296 0-2.046-.067-2.319-.135a1.263 1.263 0 0 1-.545-.478c-.137-.34-.205-.886-.205-1.704V4.485c0-1.227.068-1.977.205-2.317s.477-.614.886-.819 1.16-.34 2.25-.272V.463h-9.137v.545h.75c.75 0 1.364.205 1.705.682.273.341.41 1.091.41 2.387v13.16c0 1.159-.069 1.909-.342 2.25-.34.545-.954.818-1.84.818h-.75v.545h15.614l1.704-5.523-.34-.068zm-89.731-13.5h2.455v15.614c0 1.159-.137 1.909-.341 2.182-.341.545-.955.818-1.841.818h-.75v.545h8.523v-.545h-.682c-.75 0-1.364-.205-1.773-.614-.273-.34-.41-1.09-.41-2.318V1.827h2.865c.818 0 1.5.136 2.045.409.478.272.955.682 1.228 1.295.204.341.34.955.477 1.773h.545L105.84.531H89.406l-.273 4.773h.546c.068-.955.273-1.636.682-2.182.34-.545.818-.886 1.295-1.09s1.091-.274 2.046-.274M71.814 27.805c.205.205.273.75.273 1.568v8.796c0 .682-.068 1.091-.136 1.296s-.205.34-.41.477a2.1 2.1 0 0 1-.886.205h-.477v.34h10.296l1.16-3.409h-.41c-.41.818-.818 1.432-1.227 1.841-.341.341-.614.546-.955.614-.34.136-.886.136-1.636.136h-2.25c-.341 0-.614-.068-.75-.136s-.205-.205-.273-.341-.068-.477-.068-1.091v-4.227h2.932c.545 0 .954.068 1.227.204s.477.341.614.546c.068.204.204.613.272 1.295h.341v-4.773h-.34c-.069.75-.205 1.296-.546 1.637-.273.204-.75.34-1.5.34h-2.932v-5.318h3.682c.682 0 1.159.068 1.363.136.341.137.546.341.75.614.137.273.341.75.478 1.432h.409l-.136-2.932H70.383v.341h.477c.34 0 .75.136.954.41m78.14.272c.137.136.478.613.887 1.227l3.682 5.66v3.204c0 .75-.068 1.228-.205 1.432-.204.341-.613.546-1.227.546h-.477v.34h5.66v-.34h-.41c-.546 0-.955-.137-1.16-.41-.204-.204-.272-.75-.272-1.568V34.76l3.205-5.114c.409-.682.75-1.09 1.023-1.432.272-.273.545-.477.886-.682.34-.136.614-.204.75-.204h.273v-.273h-4.637v.341c.341 0 .614.068.818.136s.341.205.41.341.136.341.136.478c0 .272-.205.75-.614 1.363l-2.59 4.16-2.796-4.364c-.41-.614-.614-1.023-.614-1.296s.136-.545.409-.682.545-.204.818-.204h.273v-.273h-5.728v.341c.273 0 .41 0 .546.068.477.273.818.477.955.614m23.25-1.023h-3.613v.341c.409 0 .682 0 .886.068.41.137.682.273.887.41s.477.477.886.886v9.41c0 .75-.068 1.227-.205 1.431-.272.341-.613.546-1.227.546h-.477v.34h4.636v-.34h-.477c-.545 0-.886-.137-1.159-.41-.205-.204-.273-.75-.273-1.568v-8.318l8.796 10.91h.341V29.372c0-.75.068-1.227.205-1.432.204-.34.613-.545 1.227-.545h.477v-.341h-4.636v.341h.477c.545 0 .886.136 1.16.41.204.204.272.75.272 1.567v7.773l-8.182-10.091zm-116.05-5.727c2.727 0 5.114-1.023 7.023-3.069s2.932-4.636 2.932-7.705c0-3-.955-5.523-2.864-7.5-1.91-2.046-4.16-3-6.819-3S52.518.94 50.61 2.713c-2.182 2.046-3.273 4.705-3.273 7.91s.955 5.727 2.864 7.773c1.84 1.977 4.16 2.932 6.955 2.932M52.79 3.122c1.09-1.364 2.523-2.045 4.364-2.045 1.909 0 3.409.681 4.5 2.045 1.364 1.705 2.045 4.296 2.045 7.841 0 3.205-.613 5.592-1.84 7.092s-2.796 2.25-4.705 2.25c-1.773 0-3.205-.682-4.296-2.046-1.432-1.773-2.114-4.364-2.114-7.705 0-3.273.682-5.727 2.046-7.432m91.368 12.614c-.682 1.228-1.296 2.182-1.91 2.796-.477.477-.954.818-1.5.955-.477.136-1.363.272-2.454.272h-3.41c-.545 0-.954-.068-1.159-.204s-.34-.273-.409-.478-.136-.75-.136-1.636v-6.75h4.432c.818 0 1.432.136 1.841.34s.682.478.886.819c.137.273.273.886.41 1.909h.545V6.668h-.545c-.069 1.159-.341 1.977-.887 2.454-.409.341-1.159.546-2.318.546h-4.432V1.622h5.523c1.023 0 1.704.068 2.114.205.477.204.886.545 1.09.886.273.41.478 1.16.682 2.182h.614l-.205-4.5h-15.546V.94h.75c.819 0 1.432.205 1.773.614.273.273.41 1.09.41 2.386v13.228c0 1.023-.069 1.637-.137 1.978-.137.34-.341.545-.682.75-.41.204-.886.34-1.364.34h-.75v.546h15.546l1.705-5.114-.477.068zm-133.37 4.228c-.341-.205-.546-.41-.614-.614-.136-.34-.204-1.023-.204-2.045V11.1h9.341v6.205c0 1.227-.136 1.977-.34 2.318-.41.477-.955.75-1.774.75h-.682v.545h8.592v-.545h-.75c-.478 0-.955-.136-1.364-.341-.34-.205-.545-.41-.614-.614-.136-.34-.204-1.022-.204-2.045V4.213c0-1.023.068-1.636.136-1.977.137-.341.341-.546.614-.75.409-.205.886-.341 1.364-.341h.75V.463h-8.592v.545h.682c.477 0 .955.137 1.364.341.34.205.545.41.613.614.137.34.205 1.023.205 2.046v5.863H9.971V4.01c0-1.023.068-1.637.204-1.978s.341-.545.614-.75c.409-.204.886-.34 1.364-.34h.75V.462h-8.66v.545h.682c.477 0 .955.137 1.364.341.34.205.477.41.613.614.137.34.205 1.023.205 2.046v13.16c0 1.227-.136 1.977-.341 2.318-.41.477-.955.75-1.841.75h-.682v.545h8.66v-.545h-.75c-.478.068-.955-.069-1.364-.273m12.546 20.592h4.227v-.341c-.613-.068-1.09-.137-1.227-.273-.204-.136-.273-.34-.273-.545 0-.273.137-.682.341-1.16l.887-2.113h5.182l.818 1.909c.273.613.41 1.09.41 1.364 0 .204-.07.409-.274.545s-.545.273-1.09.273v.34h5.25v-.34c-.546-.068-.955-.205-1.296-.478-.273-.272-.614-.886-1.023-1.772l-4.636-11.25h-.341l-4.705 11.113c-.409.955-.75 1.637-1.09 1.978-.137.136-.546.272-1.092.409v.34zm6.546-10.705l2.25 5.454h-4.569l2.319-5.454zm-15.82 9.341c-.476.34-1.09.545-1.908.545H6.698l8.728-12.682H5.539l-.273 3.41h.34c.137-.819.274-1.364.478-1.637.137-.273.41-.546.75-.682s.818-.205 1.568-.205h4.296L4.107 40.283v.34h10.841l.614-3.545-.341-.068c-.341 1.023-.75 1.773-1.16 2.182m116.87.41c-.273.408-.614.545-1.227.545h-.478v.34h5.728v-.34h-.546c-.477 0-.886-.137-1.09-.41-.205-.204-.273-.75-.273-1.568v-3.955h1.432l4.5 6.342h3.545v-.341c-.75-.068-1.295-.273-1.772-.546s-1.023-.886-1.637-1.773l-2.727-3.886c1.09-.273 1.977-.682 2.454-1.296a3.216 3.216 0 0 0 .819-2.182c0-.75-.205-1.431-.682-1.977s-1.023-.954-1.705-1.159-1.705-.341-3.136-.341h-4.842v.341h.478c.477 0 .886.136 1.159.41.204.204.273.75.273 1.567v8.728c-.069.818-.137 1.296-.273 1.5m2.045-11.591c.682-.137 1.16-.205 1.569-.205.886 0 1.568.273 2.045.818.546.546.818 1.228.818 2.046 0 .886-.34 1.568-.954 2.114-.682.545-1.637.818-2.864.818h-.545V28.01h-.069zM48.154 39.737c-.204-.204-.272-.75-.272-1.568v-9l5.182 11.387h.34l5.114-11.387v9c0 .75-.068 1.228-.204 1.432-.205.341-.614.546-1.227.546h-.478v.34h5.66v-.34h-.478c-.545 0-.886-.137-1.159-.41-.204-.204-.273-.75-.273-1.568v-8.864c0-.75.069-1.227.205-1.432.205-.34.614-.545 1.227-.545h.478v-.273h-3.75l-4.774 10.569-4.84-10.569h-3.75v.341c.545 0 .954.068 1.158.205.273.136.41.272.478.477.136.273.204.682.204 1.295v8.864c0 .75-.068 1.228-.204 1.432-.205.341-.614.546-1.228.546h-.477v.34h4.637v-.34h-.478c-.477 0-.886-.137-1.09-.478m42.956-.068c-.273.341-.682.478-1.227.478h-.478v.34h5.66v-.34h-.478c-.34 0-.613-.069-.886-.273-.205-.137-.341-.273-.41-.41-.067-.204-.136-.681-.136-1.363v-4.364l4.637 4.637c.34.34.545.613.614.682.068.136.068.272.068.409s-.068.272-.273.409c-.136.136-.477.204-.818.204v.341h6.341v-.34c-.545-.069-1.16-.205-1.705-.478s-1.227-.886-2.045-1.636l-4.91-4.978 2.046-2.045c1.16-1.228 1.841-1.91 1.977-2.046.478-.477.955-.818 1.296-1.023s.614-.34.886-.409c.205-.068.478-.136.819-.136v-.273h-4.91v.341h.341c.341 0 .546.068.682.205s.205.272.205.409c0 .204-.069.409-.273.681-.41.614-1.568 1.841-3.546 3.614-.75.75-1.227 1.16-1.363 1.296v-4.16c0-.681.068-1.09.136-1.295s.205-.41.41-.477a2.1 2.1 0 0 1 .885-.205h.478v-.409h-5.66v.341h.478c.34 0 .613.068.886.205.205.136.341.272.41.409.067.204.136.681.136 1.363v8.728c0 .886-.137 1.364-.273 1.568m24.342 14.865l-1.432 4.295h-4.773l3.887 2.796-1.5 4.364 3.818-2.728 3.818 2.66-1.5-4.296 3.819-2.796h-4.705l-1.432-4.295zm60.14 4.295l-1.365-4.295-1.432 4.295h-4.772l3.886 2.796-1.5 4.364 3.818-2.728 3.819 2.66-1.5-4.296 3.818-2.796h-4.773zm-91.914 2.796l-1.5 4.364 3.818-2.728 3.818 2.66-1.5-4.296 3.819-2.796h-4.705l-1.364-4.295-1.432 4.295H79.86l3.819 2.796zm62.525-2.796l-1.363-4.295-1.432 4.295h-4.773l3.886 2.796-1.5 4.364 3.819-2.728 3.818 2.66-1.5-4.296 3.818-2.796h-4.773"/></svg>